<svg width="64" height="64" viewBox="0 0 64 64" fill="none" xmlns="http://www.w3.org/2000/svg">
<path fill-rule="evenodd" clip-rule="evenodd" d="M45.4159 31.4159C45.2301 31.6022 45.0094 31.7499 44.7664 31.8508C44.5234 31.9516 44.2629 32.0035 43.9999 32.0035C43.7368 32.0035 43.4763 31.9516 43.2333 31.8508C42.9904 31.7499 42.7697 31.6022 42.5839 31.4159L31.9999 20.8279L21.4159 31.4159C21.2299 31.6019 21.0092 31.7494 20.7662 31.85C20.5233 31.9506 20.2629 32.0024 19.9999 32.0024C19.7369 32.0024 19.4765 31.9506 19.2335 31.85C18.9906 31.7494 18.7698 31.6019 18.5839 31.4159C18.3979 31.23 18.2504 31.0092 18.1498 30.7662C18.0491 30.5233 17.9974 30.2629 17.9974 29.9999C17.9974 29.7369 18.0491 29.4765 18.1498 29.2336C18.2504 28.9906 18.3979 28.7699 18.5839 28.5839L30.5839 16.5839C30.7697 16.3977 30.9904 16.2499 31.2333 16.1491C31.4763 16.0482 31.7368 15.9963 31.9999 15.9963C32.2629 15.9963 32.5234 16.0482 32.7664 16.1491C33.0094 16.2499 33.2301 16.3977 33.4159 16.5839L45.4159 28.5839C45.6021 28.7697 45.7499 28.9904 45.8507 29.2334C45.9516 29.4764 46.0034 29.7368 46.0034 29.9999C46.0034 30.263 45.9516 30.5235 45.8507 30.7664C45.7499 31.0094 45.6021 31.2301 45.4159 31.4159V31.4159Z" fill="white"/>
<path fill-rule="evenodd" clip-rule="evenodd" d="M32 18C32.5304 18 33.0391 18.2107 33.4142 18.5858C33.7893 18.9609 34 19.4696 34 20L34 46C34 46.5304 33.7893 47.0391 33.4142 47.4142C33.0391 47.7893 32.5304 48 32 48C31.4696 48 30.9609 47.7893 30.5858 47.4142C30.2107 47.0391 30 46.5304 30 46L30 20C30 19.4696 30.2107 18.9609 30.5858 18.5858C30.9609 18.2107 31.4696 18 32 18Z" fill="white"/>
</svg>
