<svg width="69" height="69" viewBox="0 0 69 69" fill="none" xmlns="http://www.w3.org/2000/svg">
<path d="M34.1667 68.3333C40.9242 68.3333 47.53 66.3295 53.1486 62.5752C58.7673 58.8209 63.1466 53.4848 65.7326 47.2417C68.3185 40.9986 68.9952 34.1288 67.6768 27.5011C66.3585 20.8734 63.1044 14.7855 58.3261 10.0072C53.5479 5.22891 47.4599 1.97485 40.8322 0.656518C34.2046 -0.66181 27.3348 0.0148039 21.0916 2.6008C14.8485 5.18679 9.5124 9.56602 5.75812 15.1847C2.00384 20.8034 0 27.4092 0 34.1667C0 43.2282 3.59969 51.9187 10.0072 58.3262C13.1799 61.4988 16.9464 64.0155 21.0916 65.7326C25.2369 67.4496 29.6798 68.3333 34.1667 68.3333ZM21.5592 27.8117L31.8092 18.04C31.9574 17.8954 32.1312 17.7796 32.3217 17.6983C32.4824 17.5533 32.6675 17.4376 32.8683 17.3567C33.2773 17.1759 33.7195 17.0826 34.1667 17.0826C34.6138 17.0826 35.056 17.1759 35.465 17.3567C35.8844 17.5193 36.2676 17.7631 36.5925 18.0742L46.8425 28.3242C47.4859 28.9676 47.8473 29.8402 47.8473 30.75C47.8473 31.6599 47.4859 32.5325 46.8425 33.1758C46.1991 33.8192 45.3265 34.1807 44.4167 34.1807C43.5068 34.1807 42.6342 33.8192 41.9908 33.1758L37.5833 28.7342V47.8333C37.5833 48.7395 37.2234 49.6085 36.5826 50.2493C35.9419 50.89 35.0728 51.25 34.1667 51.25C33.2605 51.25 32.3915 50.89 31.7507 50.2493C31.11 49.6085 30.75 48.7395 30.75 47.8333V28.495L26.2742 32.7659C25.6172 33.3911 24.7388 33.7298 23.8321 33.7073C22.9254 33.6849 22.0648 33.3032 21.4396 32.6463C20.8143 31.9893 20.4757 31.1109 20.4981 30.2042C20.5205 29.2975 20.9022 28.4369 21.5592 27.8117Z" fill="black"/>
</svg>
